<svg width="183" height="211" viewBox="0 0 183 211" fill="none" xmlns="http://www.w3.org/2000/svg">
<rect width="182" height="211" transform="translate(0.339966)" fill="#ECE0E1"/>
<mask id="mask0_45_685" style="mask-type:alpha" maskUnits="userSpaceOnUse" x="11" y="25" width="160" height="160">
<rect x="11" y="25" width="160" height="160" fill="#FFFBFF"/>
</mask>
<g mask="url(#mask0_45_685)">
<path d="M48 142.5C55 138.056 61.9166 134.694 68.75 132.417C75.5833 130.139 83 129 91 129C99 129 106.444 130.139 113.333 132.417C120.222 134.694 127.167 138.056 134.167 142.5C139.056 136.5 142.528 130.444 144.583 124.333C146.639 118.222 147.667 111.778 147.667 105C147.667 88.8889 142.25 75.4167 131.417 64.5833C120.583 53.75 107.111 48.3333 91 48.3333C74.8889 48.3333 61.4166 53.75 50.5833 64.5833C39.75 75.4167 34.3333 88.8889 34.3333 105C34.3333 111.778 35.3889 118.222 37.5 124.333C39.6111 130.444 43.1111 136.5 48 142.5ZM91 110C84.5555 110 79.1389 107.806 74.75 103.417C70.3611 99.0278 68.1666 93.6111 68.1666 87.1667C68.1666 80.7222 70.3611 75.3055 74.75 70.9167C79.1389 66.5278 84.5555 64.3333 91 64.3333C97.4444 64.3333 102.861 66.5278 107.25 70.9167C111.639 75.3055 113.833 80.7222 113.833 87.1667C113.833 93.6111 111.639 99.0278 107.25 103.417C102.861 107.806 97.4444 110 91 110ZM91 171.667C81.6666 171.667 72.9444 169.917 64.8333 166.417C56.7222 162.917 49.6666 158.139 43.6666 152.083C37.6666 146.028 32.9444 138.944 29.5 130.833C26.0555 122.722 24.3333 114.056 24.3333 104.833C24.3333 95.7222 26.0833 87.1111 29.5833 79C33.0833 70.8889 37.8611 63.8333 43.9166 57.8333C49.9722 51.8333 57.0555 47.0833 65.1666 43.5833C73.2778 40.0833 81.9444 38.3333 91.1666 38.3333C100.278 38.3333 108.889 40.0833 117 43.5833C125.111 47.0833 132.167 51.8333 138.167 57.8333C144.167 63.8333 148.917 70.8889 152.417 79C155.917 87.1111 157.667 95.7778 157.667 105C157.667 114.111 155.917 122.722 152.417 130.833C148.917 138.944 144.167 146.028 138.167 152.083C132.167 158.139 125.111 162.917 117 166.417C108.889 169.917 100.222 171.667 91 171.667Z" fill="#585052"/>
</g>
</svg>
