<svg width="110" height="131" viewBox="0 0 110 131" fill="none" xmlns="http://www.w3.org/2000/svg">
<rect width="109" height="131" transform="translate(0.339966)" fill="#ECE0E1"/>
<mask id="mask0_45_685" style="mask-type:alpha" maskUnits="userSpaceOnUse" x="19" y="30" width="72" height="72">
<rect x="19" y="30" width="72" height="72" fill="#FFFBFF"/>
</mask>
<g mask="url(#mask0_45_685)">
<path d="M35.65 82.875C38.8 80.875 41.9125 79.3625 44.9875 78.3375C48.0625 77.3125 51.4 76.8 55 76.8C58.6 76.8 61.95 77.3125 65.05 78.3375C68.15 79.3625 71.275 80.875 74.425 82.875C76.625 80.175 78.1875 77.45 79.1125 74.7C80.0375 71.95 80.5 69.05 80.5 66C80.5 58.75 78.0625 52.6875 73.1875 47.8125C68.3125 42.9375 62.25 40.5 55 40.5C47.75 40.5 41.6875 42.9375 36.8125 47.8125C31.9375 52.6875 29.5 58.75 29.5 66C29.5 69.05 29.975 71.95 30.925 74.7C31.875 77.45 33.45 80.175 35.65 82.875ZM55 68.25C52.1 68.25 49.6625 67.2625 47.6875 65.2875C45.7125 63.3125 44.725 60.875 44.725 57.975C44.725 55.075 45.7125 52.6375 47.6875 50.6625C49.6625 48.6875 52.1 47.7 55 47.7C57.9 47.7 60.3375 48.6875 62.3125 50.6625C64.2875 52.6375 65.275 55.075 65.275 57.975C65.275 60.875 64.2875 63.3125 62.3125 65.2875C60.3375 67.2625 57.9 68.25 55 68.25ZM55 96C50.8 96 46.875 95.2125 43.225 93.6375C39.575 92.0625 36.4 89.9125 33.7 87.1875C31 84.4625 28.875 81.275 27.325 77.625C25.775 73.975 25 70.075 25 65.925C25 61.825 25.7875 57.95 27.3625 54.3C28.9375 50.65 31.0875 47.475 33.8125 44.775C36.5375 42.075 39.725 39.9375 43.375 38.3625C47.025 36.7875 50.925 36 55.075 36C59.175 36 63.05 36.7875 66.7 38.3625C70.35 39.9375 73.525 42.075 76.225 44.775C78.925 47.475 81.0625 50.65 82.6375 54.3C84.2125 57.95 85 61.85 85 66C85 70.1 84.2125 73.975 82.6375 77.625C81.0625 81.275 78.925 84.4625 76.225 87.1875C73.525 89.9125 70.35 92.0625 66.7 93.6375C63.05 95.2125 59.15 96 55 96Z" fill="#585052"/>
</g>
</svg>
